# xmcd CD database file
#
# Track frame offsets:
#	150
#	29517
#	49092
#	71415
#	97180
#	106140
#	108010
#	137482
#
# Disc length: 2192 seconds
#
# Revision: 0
# Processed by: cddbd v1.5.1PL2 Copyright (c) Steve Scherf et al.
# Submitted via: CDex 1.51
#
DISCID=64088e08
DTITLE=布袋寅泰 - HOTEI 25th Anniversary ALL TIME SUPER BEST TOUR 06.03.20 HTACHI SHIMIN KAIKAN
DYEAR=2006
DGENRE=Rock
TTITLE0=MC-
TTITLE1=SONG FOR US
TTITLE2=バンビーナ (BAMBINA GO！GO！ VERSION)
TTITLE3=POISON
TTITLE4=ENCORE-
TTITLE5=MC-
TTITLE6=BEAT SWEET (25 YEARS ANNIVERSARY VERSION)
TTITLE7=SUPERSONIC GENERATION
EXTD=YEAR: 2006
EXTT0=
EXTT1=
EXTT2=
EXTT3=
EXTT4=
EXTT5=
EXTT6=
EXTT7=
PLAYORDER=
